<svg width="87" height="85" viewBox="0 0 87 85" fill="none" xmlns="http://www.w3.org/2000/svg">
<path d="M18.125 7.08333L18.125 28.3333H32.625V37.825C23.8525 41.8625 18.125 50.575 18.125 60.2083C18.125 73.8792 29.5075 85 43.5 85C57.4925 85 68.875 73.8792 68.875 60.2083C68.875 50.575 63.1475 41.8979 54.375 37.825L54.375 0H32.625V7.08333H18.125ZM25.375 21.25V14.1667H39.875V7.08333H47.125V42.7125L49.5538 43.5271C56.7675 46.0062 61.625 52.7354 61.625 60.2083C61.625 69.9833 53.505 77.9167 43.5 77.9167C33.495 77.9167 25.375 69.9833 25.375 60.2083C25.375 52.7354 30.2325 46.0062 37.4462 43.5271L39.875 42.7125V21.25H25.375ZM32.625 60.2083C32.625 66.0521 37.5187 70.8333 43.5 70.8333C49.4813 70.8333 54.375 66.0521 54.375 60.2083C54.375 54.3646 49.4813 49.5833 43.5 49.5833C37.5187 49.5833 32.625 54.3646 32.625 60.2083ZM47.125 60.2083C47.125 62.1562 45.4937 63.75 43.5 63.75C41.5063 63.75 39.875 62.1562 39.875 60.2083C39.875 58.2604 41.5063 56.6667 43.5 56.6667C45.4937 56.6667 47.125 58.2604 47.125 60.2083Z" fill="#1690FF"/>
</svg>
